<svg width="28" height="24" viewBox="0 0 28 24" fill="none" xmlns="http://www.w3.org/2000/svg">
<path d="M14.175 23.0611L14.1748 23.061L14.175 23.0611ZM14.0003 23.0003C14.0008 23.0003 14.0013 23.0003 14.0018 23.0004C14.007 23.0007 14.0122 23.0011 14.0175 23.0017V23.2808V23.2811V23.3297V23.3339V23.9579L14.0054 23.3172L14.0053 23.3127L14.0051 23.2984L14.0051 23.2981L14.0006 23.0618L13.9995 23.0003C13.9997 23.0003 14 23.0003 14.0003 23.0003ZM18.9089 19.0336C16.624 21.0004 14.6067 22.4932 14 22.9347C13.3934 22.4933 11.3762 21.0006 9.09138 19.0338C6.43714 16.7491 3.52153 13.9084 1.98076 11.3736C1.98052 11.3732 1.98023 11.3727 1.97987 11.3721L1.96899 11.3537C1.33573 10.2946 1 9.07682 1 7.82959C1 4.05684 4.04371 1 7.76563 1C9.92226 1 11.9275 2.03288 13.1949 3.75324L14 4.84607L14.8051 3.75326C16.0727 2.03269 18.0782 1 20.2344 1C23.9564 1 27 4.05693 27 7.82959C27 9.07681 26.6643 10.2945 26.031 11.3537L26.0258 11.3624L26.022 11.3691L26.0217 11.3696C24.4819 13.9051 21.5646 16.7476 18.9089 19.0336Z" stroke="black" stroke-width="2"/>
</svg>
