<svg width="28" height="24" viewBox="0 0 28 24" fill="none" xmlns="http://www.w3.org/2000/svg">
<path d="M14.0183 23.9998C14.0065 24.0001 13.9947 24.0001 13.983 23.9998C13.8481 23.9998 13.7116 23.9592 13.5928 23.8742C13.2184 23.6063 4.38014 17.2506 1.12355 11.8886C1.11919 11.8814 1.11506 11.8741 1.1107 11.8669C0.384044 10.6515 0 9.25624 0 7.82959C0 3.5123 3.48372 0 7.76563 0C10.2447 0 12.5469 1.18771 14 3.16011C15.4533 1.18748 17.7558 0 20.2344 0C24.5164 0 28 3.51241 28 7.82959C28 9.25624 27.616 10.6515 26.8893 11.8669C26.8852 11.8741 26.8812 11.8814 26.8764 11.8886C23.6204 17.2502 14.7819 23.606 14.4072 23.8742C14.2893 23.9592 14.1535 23.9998 14.0183 23.9998Z" fill="black"/>
</svg>
