<svg width="260" height="33" viewBox="0 0 260 33" fill="none" xmlns="http://www.w3.org/2000/svg">
<mask id="path-1-inside-1_2_135" fill="white">
<path d="M8.66667 7.92999H11.31C13.8233 7.92999 15.34 8.44998 16.5967 9.70665C17.8533 10.9633 18.59 12.9133 18.59 15.21C18.59 17.16 18.07 18.9367 17.1167 20.1933C16.0333 21.6233 14.4733 22.2733 12.1333 22.23H8.66667V7.92999ZM0 0.693323V29.5533H12.6533C17.6367 29.5533 20.7133 28.5567 23.27 26.13C26.0433 23.4867 27.3433 19.9333 27.3433 15.08C27.3433 6.19666 21.7967 0.693323 12.8267 0.693323H0ZM53.5167 9.44666C53.43 3.46666 49.2267 0.0433228 41.86 0.0433228C34.8833 0.0433228 30.2033 3.68333 30.2033 9.1C30.2033 11.3967 30.9833 13.3466 32.37 14.6033C33.7133 15.86 35.4033 16.5967 40.2133 18.0267C45.24 19.5433 45.9767 19.9333 45.9767 21.19C45.9767 22.8367 44.8067 23.7033 42.51 23.7033C39.3467 23.7033 38.09 22.5766 37.8733 19.8033H29.0767C29.12 26.26 34.06 30.16 42.0333 30.16C49.79 30.16 54.6 26.4333 54.6 20.3667C54.6 17.8533 53.56 15.6867 51.6533 14.2133C50.31 13.1733 48.36 12.3933 44.72 11.3533L42.51 10.79C39 9.83665 38.5667 9.53332 38.5667 8.40665C38.5667 7.06332 39.6067 6.32666 41.5133 6.32666C43.8533 6.32666 45.11 7.36666 45.1533 9.44666H53.5167ZM73.7967 16.5967L69.8533 20.4967L72.4533 23.01C71.9333 23.27 71.5867 23.3567 70.9367 23.3567C67.6433 23.3567 65.4767 20.0633 65.4767 15.21C65.4767 10.0967 67.6 7.10665 71.1533 7.10665C74.7933 7.10665 76.7867 9.96666 76.7867 15.08C76.7867 17.1167 76.6133 18.33 76.18 19.11L73.7967 16.5967ZM85.8 28.7733L82.16 25.0467C84.3267 23.01 85.67 19.1533 85.67 14.95C85.67 6.32667 79.6467 0 71.4133 0C62.8333 0 56.68 6.36998 56.68 15.2533C56.68 24.2666 62.3567 30.3333 70.8067 30.3333C73.71 30.3333 75.92 29.77 77.7833 28.6L81.9 32.7167L85.8 28.7733ZM115.353 0.693323H106.557V18.3733C106.557 21.4067 105.213 22.8366 102.44 22.8366C99.4067 22.8366 98.0633 21.4067 98.0633 18.3733V0.693323H89.2667V17.68C89.2667 21.2333 89.6133 23.0967 90.6967 24.9167C92.7333 28.3833 96.5033 30.03 102.31 30.03C106.773 30.03 109.807 29.2067 112.06 27.2133C113.403 26.0433 114.357 24.5267 114.877 22.75C115.31 21.4067 115.44 20.02 115.44 17.7667V0.693323H115.353ZM133.683 19.4133H127.963L128.787 16.77L129.523 14.3433C130 12.9133 130.26 11.9167 130.997 9.53333L131.647 11.96L132.253 14.3L132.947 16.64L133.683 19.4133ZM135.243 0.693323H126.577L115.917 29.5533H124.843L126.317 25.48H135.547L136.933 29.5533H145.86L135.243 0.693323ZM156.433 7.36667H160.767C163.497 7.36667 164.84 8.36333 164.84 10.3133C164.84 12.3067 163.67 13.3033 161.243 13.26H156.433V7.36667ZM147.767 0.693323V29.5533H156.52V19.4133H160.247C163.67 19.4133 164.623 20.5833 165.057 25.22L165.23 26.8667C165.36 28.5567 165.447 28.86 165.75 29.5533H174.46L174.33 29.3366C174.027 28.9033 173.853 28.0367 173.723 26.4333L173.42 23.4C173.03 19.4133 171.687 17.0733 169.217 16.25C171.817 15.08 173.463 12.35 173.463 9.18665C173.463 7.06331 172.813 5.19999 171.47 3.72666C169.52 1.51666 167.093 0.693323 162.413 0.693323H147.767ZM201.587 0.693323H177.797V29.5533H202.02V22.36H186.377V17.8533H200.2V11.44H186.377V7.53998H201.587V0.693323ZM215.02 7.92999H217.663C220.177 7.92999 221.693 8.44998 222.95 9.70665C224.207 10.9633 224.943 12.9133 224.943 15.21C224.943 17.16 224.423 18.9367 223.47 20.1933C222.387 21.6233 220.827 22.2733 218.487 22.23H215.02V7.92999ZM206.353 0.693323V29.5533H219.007C223.99 29.5533 227.067 28.5567 229.623 26.13C232.397 23.4867 233.74 19.9333 233.74 15.08C233.74 6.19666 228.193 0.693323 219.223 0.693323H206.353ZM260 22.75L253.847 22.7933C251.463 22.7933 249.86 22.88 245.7 23.2267C246.567 22.7067 247.26 22.36 247.693 22.1C247.823 22.0567 248.343 21.7533 249.34 21.2767C251.897 20.02 254.15 18.6333 255.84 17.3333C258.31 15.47 259.523 13.13 259.523 10.14C259.523 4.67998 255.147 1.12666 248.387 1.12666C244.66 1.12666 241.583 2.16667 239.46 4.11667C237.25 6.19667 236.34 8.75331 236.34 12.87L236.383 13.26H243.88C243.967 9.61999 245.223 8.05999 248.04 8.05999C250.12 8.05999 251.463 9.14333 251.463 10.8333C251.463 12.4367 250.727 13.26 247.737 15.0366C245.44 16.38 243.837 17.3767 242.797 18.1133C241.237 19.1967 239.937 20.28 238.853 21.32C236.86 23.3566 235.733 26.13 235.733 29.12C235.733 29.2066 235.733 29.38 235.777 29.5533H260V22.75Z"/>
</mask>
<path d="M8.66667 7.92999H11.31C13.8233 7.92999 15.34 8.44998 16.5967 9.70665C17.8533 10.9633 18.59 12.9133 18.59 15.21C18.59 17.16 18.07 18.9367 17.1167 20.1933C16.0333 21.6233 14.4733 22.2733 12.1333 22.23H8.66667V7.92999ZM0 0.693323V29.5533H12.6533C17.6367 29.5533 20.7133 28.5567 23.27 26.13C26.0433 23.4867 27.3433 19.9333 27.3433 15.08C27.3433 6.19666 21.7967 0.693323 12.8267 0.693323H0ZM53.5167 9.44666C53.43 3.46666 49.2267 0.0433228 41.86 0.0433228C34.8833 0.0433228 30.2033 3.68333 30.2033 9.1C30.2033 11.3967 30.9833 13.3466 32.37 14.6033C33.7133 15.86 35.4033 16.5967 40.2133 18.0267C45.24 19.5433 45.9767 19.9333 45.9767 21.19C45.9767 22.8367 44.8067 23.7033 42.51 23.7033C39.3467 23.7033 38.09 22.5766 37.8733 19.8033H29.0767C29.12 26.26 34.06 30.16 42.0333 30.16C49.79 30.16 54.6 26.4333 54.6 20.3667C54.6 17.8533 53.56 15.6867 51.6533 14.2133C50.31 13.1733 48.36 12.3933 44.72 11.3533L42.51 10.79C39 9.83665 38.5667 9.53332 38.5667 8.40665C38.5667 7.06332 39.6067 6.32666 41.5133 6.32666C43.8533 6.32666 45.11 7.36666 45.1533 9.44666H53.5167ZM73.7967 16.5967L69.8533 20.4967L72.4533 23.01C71.9333 23.27 71.5867 23.3567 70.9367 23.3567C67.6433 23.3567 65.4767 20.0633 65.4767 15.21C65.4767 10.0967 67.6 7.10665 71.1533 7.10665C74.7933 7.10665 76.7867 9.96666 76.7867 15.08C76.7867 17.1167 76.6133 18.33 76.18 19.11L73.7967 16.5967ZM85.8 28.7733L82.16 25.0467C84.3267 23.01 85.67 19.1533 85.67 14.95C85.67 6.32667 79.6467 0 71.4133 0C62.8333 0 56.68 6.36998 56.68 15.2533C56.68 24.2666 62.3567 30.3333 70.8067 30.3333C73.71 30.3333 75.92 29.77 77.7833 28.6L81.9 32.7167L85.8 28.7733ZM115.353 0.693323H106.557V18.3733C106.557 21.4067 105.213 22.8366 102.44 22.8366C99.4067 22.8366 98.0633 21.4067 98.0633 18.3733V0.693323H89.2667V17.68C89.2667 21.2333 89.6133 23.0967 90.6967 24.9167C92.7333 28.3833 96.5033 30.03 102.31 30.03C106.773 30.03 109.807 29.2067 112.06 27.2133C113.403 26.0433 114.357 24.5267 114.877 22.75C115.31 21.4067 115.44 20.02 115.44 17.7667V0.693323H115.353ZM133.683 19.4133H127.963L128.787 16.77L129.523 14.3433C130 12.9133 130.26 11.9167 130.997 9.53333L131.647 11.96L132.253 14.3L132.947 16.64L133.683 19.4133ZM135.243 0.693323H126.577L115.917 29.5533H124.843L126.317 25.48H135.547L136.933 29.5533H145.86L135.243 0.693323ZM156.433 7.36667H160.767C163.497 7.36667 164.84 8.36333 164.84 10.3133C164.84 12.3067 163.67 13.3033 161.243 13.26H156.433V7.36667ZM147.767 0.693323V29.5533H156.52V19.4133H160.247C163.67 19.4133 164.623 20.5833 165.057 25.22L165.23 26.8667C165.36 28.5567 165.447 28.86 165.75 29.5533H174.46L174.33 29.3366C174.027 28.9033 173.853 28.0367 173.723 26.4333L173.42 23.4C173.03 19.4133 171.687 17.0733 169.217 16.25C171.817 15.08 173.463 12.35 173.463 9.18665C173.463 7.06331 172.813 5.19999 171.47 3.72666C169.52 1.51666 167.093 0.693323 162.413 0.693323H147.767ZM201.587 0.693323H177.797V29.5533H202.02V22.36H186.377V17.8533H200.2V11.44H186.377V7.53998H201.587V0.693323ZM215.02 7.92999H217.663C220.177 7.92999 221.693 8.44998 222.95 9.70665C224.207 10.9633 224.943 12.9133 224.943 15.21C224.943 17.16 224.423 18.9367 223.47 20.1933C222.387 21.6233 220.827 22.2733 218.487 22.23H215.02V7.92999ZM206.353 0.693323V29.5533H219.007C223.99 29.5533 227.067 28.5567 229.623 26.13C232.397 23.4867 233.74 19.9333 233.74 15.08C233.74 6.19666 228.193 0.693323 219.223 0.693323H206.353ZM260 22.75L253.847 22.7933C251.463 22.7933 249.86 22.88 245.7 23.2267C246.567 22.7067 247.26 22.36 247.693 22.1C247.823 22.0567 248.343 21.7533 249.34 21.2767C251.897 20.02 254.15 18.6333 255.84 17.3333C258.31 15.47 259.523 13.13 259.523 10.14C259.523 4.67998 255.147 1.12666 248.387 1.12666C244.66 1.12666 241.583 2.16667 239.46 4.11667C237.25 6.19667 236.34 8.75331 236.34 12.87L236.383 13.26H243.88C243.967 9.61999 245.223 8.05999 248.04 8.05999C250.12 8.05999 251.463 9.14333 251.463 10.8333C251.463 12.4367 250.727 13.26 247.737 15.0366C245.44 16.38 243.837 17.3767 242.797 18.1133C241.237 19.1967 239.937 20.28 238.853 21.32C236.86 23.3566 235.733 26.13 235.733 29.12C235.733 29.2066 235.733 29.38 235.777 29.5533H260V22.75Z" fill="black" stroke="black" stroke-width="2" mask="url(#path-1-inside-1_2_135)"/>
</svg>
