<svg width="243" height="32" viewBox="0 0 243 32" fill="none" xmlns="http://www.w3.org/2000/svg">
<path d="M8.1 8.12268H10.5705C12.9195 8.12268 14.337 8.60867 15.5115 9.78317C16.686 10.9577 17.3745 12.7802 17.3745 14.9267C17.3745 16.7492 16.8885 18.4097 15.9975 19.5842C14.985 20.9207 13.527 21.5282 11.34 21.4877H8.1V8.12268ZM0 1.35917V28.3322H11.826C16.4835 28.3322 19.359 27.4007 21.7485 25.1327C24.3405 22.6622 25.5555 19.3412 25.5555 14.8052C25.5555 6.50268 20.3715 1.35917 11.988 1.35917H0ZM50.0175 9.54018C49.9365 3.95118 46.008 0.751672 39.123 0.751672C32.6025 0.751672 28.2285 4.15368 28.2285 9.21618C28.2285 11.3627 28.9575 13.1852 30.2535 14.3597C31.509 15.5342 33.0885 16.2227 37.584 17.5592C42.282 18.9767 42.9705 19.3412 42.9705 20.5157C42.9705 22.0547 41.877 22.8647 39.7305 22.8647C36.774 22.8647 35.5995 21.8117 35.397 19.2197H27.1755C27.216 25.2542 31.833 28.8992 39.285 28.8992C46.5345 28.8992 51.03 25.4162 51.03 19.7462C51.03 17.3972 50.058 15.3722 48.276 13.9952C47.0205 13.0232 45.198 12.2942 41.796 11.3222L39.7305 10.7957C36.45 9.90467 36.045 9.62117 36.045 8.56817C36.045 7.31267 37.017 6.62417 38.799 6.62417C40.986 6.62417 42.1605 7.59618 42.201 9.54018H50.0175ZM68.9715 16.2227L65.286 19.8677L67.716 22.2167C67.23 22.4597 66.906 22.5407 66.2985 22.5407C63.2205 22.5407 61.1955 19.4627 61.1955 14.9267C61.1955 10.1477 63.18 7.35317 66.501 7.35317C69.903 7.35317 71.766 10.0262 71.766 14.8052C71.766 16.7087 71.604 17.8427 71.199 18.5717L68.9715 16.2227ZM80.19 27.6032L76.788 24.1202C78.813 22.2167 80.0685 18.6122 80.0685 14.6837C80.0685 6.62418 74.439 0.711182 66.744 0.711182C58.725 0.711182 52.974 6.66466 52.974 14.9672C52.974 23.3912 58.2795 29.0612 66.177 29.0612C68.8905 29.0612 70.956 28.5347 72.6975 27.4412L76.545 31.2887L80.19 27.6032ZM107.811 1.35917H99.5895V17.8832C99.5895 20.7182 98.334 22.0547 95.742 22.0547C92.907 22.0547 91.6515 20.7182 91.6515 17.8832V1.35917H83.43V17.2352C83.43 20.5562 83.754 22.2977 84.7665 23.9987C86.67 27.2387 90.1935 28.7777 95.6205 28.7777C99.792 28.7777 102.627 28.0082 104.733 26.1452C105.989 25.0517 106.88 23.6342 107.366 21.9737C107.771 20.7182 107.892 19.4222 107.892 17.3162V1.35917H107.811ZM124.942 18.8552H119.596L120.366 16.3847L121.054 14.1167C121.5 12.7802 121.743 11.8487 122.431 9.62118L123.039 11.8892L123.606 14.0762L124.254 16.2632L124.942 18.8552ZM126.401 1.35917H118.301L108.338 28.3322H116.681L118.058 24.5252H126.684L127.98 28.3322H136.323L126.401 1.35917ZM146.205 7.59618H150.255C152.807 7.59618 154.062 8.52768 154.062 10.3502C154.062 12.2132 152.968 13.1447 150.7 13.1042H146.205V7.59618ZM138.105 1.35917V28.3322H146.286V18.8552H149.769C152.968 18.8552 153.86 19.9487 154.265 24.2822L154.426 25.8212C154.548 27.4007 154.629 27.6842 154.913 28.3322H163.053L162.931 28.1297C162.648 27.7247 162.486 26.9147 162.365 25.4162L162.081 22.5812C161.717 18.8552 160.461 16.6682 158.152 15.8987C160.583 14.8052 162.121 12.2537 162.121 9.29716C162.121 7.31266 161.514 5.57117 160.258 4.19417C158.436 2.12867 156.168 1.35917 151.794 1.35917H138.105ZM188.406 1.35917H166.171V28.3322H188.811V21.6092H174.19V17.3972H187.11V11.4032H174.19V7.75817H188.406V1.35917ZM200.961 8.12268H203.431C205.781 8.12268 207.198 8.60867 208.372 9.78317C209.547 10.9577 210.235 12.7802 210.235 14.9267C210.235 16.7492 209.75 18.4097 208.859 19.5842C207.846 20.9207 206.388 21.5282 204.201 21.4877H200.961V8.12268ZM192.861 1.35917V28.3322H204.687C209.345 28.3322 212.22 27.4007 214.61 25.1327C217.202 22.6622 218.457 19.3412 218.457 14.8052C218.457 6.50268 213.273 1.35917 204.89 1.35917H192.861ZM243 21.9737L237.249 22.0142C235.021 22.0142 233.523 22.0952 229.635 22.4192C230.445 21.9332 231.093 21.6092 231.498 21.3662C231.619 21.3257 232.106 21.0422 233.037 20.5967C235.427 19.4222 237.533 18.1262 239.112 16.9112C241.421 15.1697 242.555 12.9827 242.555 10.1882C242.555 5.08517 238.464 1.76417 232.146 1.76417C228.663 1.76417 225.787 2.73618 223.803 4.55868C221.737 6.50268 220.887 8.89216 220.887 12.7397L220.928 13.1042H227.934C228.015 9.70217 229.19 8.24417 231.822 8.24417C233.766 8.24417 235.021 9.25668 235.021 10.8362C235.021 12.3347 234.333 13.1042 231.539 14.7647C229.392 16.0202 227.893 16.9517 226.921 17.6402C225.464 18.6527 224.249 19.6652 223.236 20.6372C221.373 22.5407 220.32 25.1327 220.32 27.9272C220.32 28.0082 220.32 28.1702 220.36 28.3322H243V21.9737Z" fill="white"/>
</svg>
