<svg width="20" height="20" viewBox="0 0 20 20" fill="none" xmlns="http://www.w3.org/2000/svg">
<path d="M19.9998 18.8891L18.8888 20.0001L13.1317 14.3104C11.7463 15.4362 9.97967 16.1112 8.05517 16.1112C3.60639 16.1112 -0.000244141 12.5046 -0.000244141 8.05542C-0.000244141 3.60663 3.60639 0 8.05517 0C12.5044 0 16.111 3.60663 16.111 8.05542C16.111 9.97981 15.4359 11.7466 14.3102 13.132L19.9998 18.8891ZM8.05537 14.4446C11.5841 14.4446 14.4444 11.5843 14.4444 8.05552C14.4444 4.52716 11.5841 1.66686 8.05537 1.66686C4.52701 1.66686 1.66671 4.52716 1.66671 8.05552C1.66671 11.5843 4.52701 14.4446 8.05537 14.4446Z" fill="black"/>
</svg>
