<svg width="20" height="20" viewBox="0 0 20 20" fill="none" xmlns="http://www.w3.org/2000/svg">
<path d="M12.8804 11.1057L12.6895 11.0374L12.8586 10.9255C13.9262 10.2192 14.738 9.18722 15.1738 7.98263C15.6095 6.77804 15.6459 5.46493 15.2776 4.238C14.9092 3.01106 14.1558 1.93562 13.1289 1.17113C12.1021 0.406628 10.8565 -0.00622559 9.57686 -0.00622559C8.29721 -0.00622559 7.05163 0.406628 6.02479 1.17113C4.99794 1.93562 4.2445 3.01106 3.87617 4.238C3.50785 5.46493 3.54425 6.77804 3.97997 7.98263C4.41569 9.18722 5.22755 10.2192 6.29516 10.9255L6.46149 11.0374L6.27334 11.1057C4.45426 11.7825 2.88198 12.9939 1.76277 14.5812C0.643562 16.1684 0.0296985 18.0573 0.00170898 20H1.41147C1.49766 17.8875 2.39649 15.8902 3.91991 14.4261C5.44332 12.9619 7.47328 12.1443 9.58504 12.1443C11.6968 12.1443 13.7268 12.9619 15.2502 14.4261C16.7736 15.8902 17.6724 17.8875 17.7586 20H19.1684C19.1391 18.0554 18.5229 16.1651 17.4006 14.5776C16.2783 12.9902 14.7025 11.7798 12.8804 11.1057ZM5.04356 5.95961C5.04356 5.05994 5.31006 4.18049 5.80936 3.43249C6.30865 2.68448 7.01831 2.10153 7.84856 1.75737C8.67882 1.41321 9.59238 1.3233 10.4737 1.49901C11.355 1.67473 12.1644 2.10817 12.7996 2.74452C13.4349 3.38087 13.8673 4.19153 14.0423 5.07397C14.2173 5.95641 14.1269 6.87099 13.7827 7.70201C13.4384 8.53304 12.8557 9.24318 12.1083 9.74261C11.3609 10.242 10.4823 10.5083 9.58368 10.5078C8.37954 10.5063 7.22517 10.0266 6.37396 9.17389C5.52276 8.32118 5.04428 7.16516 5.04356 5.95961Z" fill="black"/>
</svg>
